<?xml version="1.0" encoding="UTF-8" standalone="no"?>
<!-- Created with Inkscape (http://www.inkscape.org/) -->

<svg
   width="1024"
   height="500"
   viewBox="0 0 270.93332 132.29167"
   version="1.1"
   id="svg5"
   xml:space="preserve"
   inkscape:version="1.3 (0e150ed6c4, 2023-07-21)"
   sodipodi:docname="feature.svg"
   inkscape:export-filename="feature.png"
   inkscape:export-xdpi="96"
   inkscape:export-ydpi="96"
   xmlns:inkscape="http://www.inkscape.org/namespaces/inkscape"
   xmlns:sodipodi="http://sodipodi.sourceforge.net/DTD/sodipodi-0.dtd"
   xmlns="http://www.w3.org/2000/svg"
   xmlns:svg="http://www.w3.org/2000/svg"><sodipodi:namedview
     id="namedview7"
     pagecolor="#ffffff"
     bordercolor="#000000"
     borderopacity="0.25"
     inkscape:showpageshadow="2"
     inkscape:pageopacity="0.0"
     inkscape:pagecheckerboard="false"
     inkscape:deskcolor="#ffffff"
     inkscape:document-units="px"
     showgrid="false"
     showguides="true"
     inkscape:zoom="0.75722503"
     inkscape:cx="497.8705"
     inkscape:cy="149.22909"
     inkscape:window-width="1575"
     inkscape:window-height="910"
     inkscape:window-x="467"
     inkscape:window-y="21"
     inkscape:window-maximized="0"
     inkscape:current-layer="layer1"
     inkscape:export-bgcolor="#ffffffff" /><defs
     id="defs2"><marker
       style="overflow:visible"
       id="ConcaveTriangle"
       refX="0"
       refY="0"
       orient="auto-start-reverse"
       inkscape:stockid="Concave triangle arrow"
       markerWidth="1"
       markerHeight="1"
       viewBox="0 0 1 1"
       inkscape:isstock="true"
       inkscape:collect="always"
       preserveAspectRatio="xMidYMid"><path
         transform="scale(0.7)"
         d="M -2,-4 9,0 -2,4 c 2,-2.33 2,-5.66 0,-8 z"
         style="fill:context-stroke;fill-rule:evenodd;stroke:none"
         id="path7" /></marker><inkscape:path-effect
       effect="powerstroke"
       id="path-effect1"
       is_visible="true"
       lpeversion="1.3"
       scale_width="1"
       interpolator_type="CubicBezierJohan"
       interpolator_beta="0.2"
       start_linecap_type="zerowidth"
       end_linecap_type="zerowidth"
       offset_points="2,4.9921381"
       linejoin_type="extrp_arc"
       miter_limit="4"
       not_jump="false"
       sort_points="true"
       message="&lt;b&gt;Ctrl + clic&lt;/b&gt; puis déplacement sur un nœud existant" /><inkscape:path-effect
       effect="fill_between_many"
       method="bsplinespiro"
       autoreverse="false"
       close="false"
       join="false"
       linkedpaths="#path1,0,1"
       id="path-effect2"
       is_visible="true"
       lpeversion="0" /></defs><g
     inkscape:label="Calque 1"
     inkscape:groupmode="layer"
     id="layer1"><rect
       style="fill:none;stroke:none;stroke-width:3.70001;stroke-linecap:round;stroke-linejoin:bevel;stroke-dasharray:none;paint-order:markers stroke fill"
       id="rect6008"
       width="101.6"
       height="101.6"
       x="16.933332"
       y="16.933332"
       ry="0" /><path
       d="m 38.318481,24.372671 c 0,-2.386314 -0.448212,-4.785524 -1.308292,-6.991255 -0.86008,-2.218627 -2.132029,-4.243773 -3.718936,-5.933539 -1.599026,-1.6897758 -3.500889,-3.0441688 -5.572352,-3.9599978 -2.083573,-0.91583 -4.324634,-1.393094 -6.577797,-1.393094 -2.241054,0 -4.494226,0.477264 -6.565688,1.393094 -2.083574,0.915829 -3.985438,2.270222 -5.5723506,3.9599978 -1.5869084,1.689766 -2.8588564,3.714912 -3.7189364,5.933539 -0.860082,2.205731 -1.308293,4.604941 -1.308293,6.991255 0,2.399218 0.448211,4.78553 1.308293,7.004157 0.86008,2.205731 2.132028,4.230869 3.7189364,5.93354 1.5869126,1.689767 3.4887766,3.04417 5.5723506,3.959998 2.071462,0.91583 4.324634,1.393085 6.565688,1.393085 2.253163,0 4.494224,-0.477264 6.577797,-1.393085 2.071463,-0.915828 3.973326,-2.270231 5.572352,-3.959998 1.586907,-1.702671 2.858856,-3.727809 3.718936,-5.93354 0.86008,-2.218627 1.308292,-4.604939 1.308292,-7.004157 z m -8.261616,-11.131836 -4.142924,3.9213 c -3.743168,-2.799084 -8.903651,-1.844565 -11.54446,2.141227 -1.804951,2.734592 -2.010886,6.307613 -0.520899,9.261485 L 9.7177694,32.499044 C 6.313792,27.055664 6.701435,19.870923 10.686874,14.891911 15.605088,8.7390802 24.278572,8.0038422 30.056865,13.240835 Z m -1.889752,6.397908 c 0.448212,0.761033 0.799481,1.586574 1.01756,2.463703 l -3.634145,-0.02591 -7.498446,7.055755 c 2.459099,1.818754 5.850964,1.160906 7.559014,-1.457587 0.133208,-0.206367 0.254406,-0.425693 0.363438,-0.657805 l 3.585687,0.03888 c -0.339179,1.225397 -0.908536,2.360511 -1.683816,3.340833 -3.113254,3.959998 -8.661373,4.475952 -12.380316,1.148008 l -3.75528,3.495631 c 5.536016,5.533675 14.233725,5.236993 19.41844,-0.657803 4.518448,-5.120906 4.966659,-12.9377 1.090238,-18.61326 z m -4.724389,-0.141934 -7.110804,6.73328 c -0.484555,-1.405984 -0.39978,-2.966764 0.230149,-4.295364 1.271951,-2.69589 4.348851,-3.779406 6.880637,-2.437909 z"
       style="fill:#0088aa;fill-opacity:1;fill-rule:evenodd;stroke:none;stroke-width:0.125003;stroke-linecap:square;stroke-linejoin:miter;stroke-miterlimit:10;stroke-opacity:1"
       id="path2" /><rect
       style="fill:#008000;stroke-width:38.4225"
       id="rect3"
       width="44.138237"
       height="59.550289"
       x="-92.718811"
       y="39.548588"
       ry="16.541748"
       transform="matrix(0.03976623,-0.99920901,0.99999103,0.00423529,0,0)" /><rect
       style="fill:#ff9955;stroke-width:15.585"
       id="rect7"
       width="55.496914"
       height="7.7924757"
       x="186.29872"
       y="25.90172"
       ry="3.8962379"
       rx="0" /><rect
       style="fill:#008080;stroke-width:15.585"
       id="rect8"
       width="55.496914"
       height="7.7924757"
       x="185.24164"
       y="39.846149"
       ry="3.8962379"
       rx="0" /><rect
       style="fill:#d4aa00;stroke-width:15.585"
       id="rect9"
       width="55.496914"
       height="7.7924757"
       x="185.24164"
       y="54.61084"
       ry="3.8962379"
       rx="0" /><rect
       style="fill:#000080;stroke-width:15.585"
       id="rect10"
       width="55.496914"
       height="7.7924757"
       x="185.24164"
       y="70.195793"
       ry="3.8962379"
       rx="0" /><rect
       style="fill:#ff5555;stroke-width:15.585"
       id="rect11"
       width="55.496914"
       height="7.7924757"
       x="185.24164"
       y="85.780746"
       ry="3.8962379"
       rx="0" /><rect
       style="fill:#00ccff;stroke-width:15.585"
       id="rect12"
       width="55.496914"
       height="7.7924757"
       x="185.24164"
       y="100.54543"
       ry="3.8962379"
       rx="0" /><rect
       style="fill:#80ffb3;stroke-width:15.585"
       id="rect13"
       width="55.496914"
       height="7.7924757"
       x="185.77019"
       y="114.07973"
       ry="3.8962379"
       rx="0" /><rect
       style="fill:#0000ff;stroke-width:15.585"
       id="rect14"
       width="55.496914"
       height="7.7924757"
       x="186.82726"
       y="11.137029"
       ry="3.8962379"
       rx="0" /><path
       style="fill:#0000ff;stroke:#0000ff;stroke-width:4.12079;stroke-dasharray:none;stroke-opacity:1;marker-end:url(#ConcaveTriangle)"
       d="m 117.91275,71.483261 25.49747,-5.901976"
       id="path14" /><text
       xml:space="preserve"
       style="font-size:23.911px;fill:#0088aa;stroke:none;stroke-width:19.5653"
       x="54.140137"
       y="26.804775"
       id="text1"
       transform="scale(0.76683089,1.3040685)"><tspan
         sodipodi:role="line"
         id="tspan1"
         style="font-style:normal;font-variant:normal;font-weight:bold;font-stretch:normal;font-family:'Liberation Sans';-inkscape-font-specification:'Liberation Sans Bold';stroke:none;stroke-width:19.5653"
         x="54.140137"
         y="26.804775">Unzip your files! </tspan></text><text
       xml:space="preserve"
       style="font-size:15.1182px;fill:#0088aa;stroke:none;stroke-width:12.3705"
       x="5.724256"
       y="97.535446"
       id="text2"
       transform="scale(0.80995828,1.2346315)"><tspan
         sodipodi:role="line"
         id="tspan2"
         style="font-style:normal;font-variant:normal;font-weight:bold;font-stretch:normal;font-family:'Cascadia Code';-inkscape-font-specification:'Cascadia Code Bold';stroke:none;stroke-width:12.3705"
         x="5.724256"
         y="97.535446">public domain source code </tspan></text><text
       xml:space="preserve"
       style="font-size:28.141px;fill:#ffff00;stroke:none;stroke-width:23.0264"
       x="45.622658"
       y="73.601761"
       id="text3"
       transform="scale(0.94472613,1.0585078)"><tspan
         sodipodi:role="line"
         id="tspan3"
         style="fill:#ffff00;stroke:none;stroke-width:23.0264"
         x="45.622658"
         y="73.601761">.zip</tspan></text></g></svg>
