<?xml version="1.0" encoding="UTF-8" standalone="no"?>
<!-- Created with Inkscape (http://www.inkscape.org/) -->

<svg
   width="512"
   height="512"
   viewBox="0 0 135.46666 135.46667"
   version="1.1"
   id="svg5"
   xml:space="preserve"
   inkscape:version="1.3 (0e150ed6c4, 2023-07-21)"
   sodipodi:docname="icon.svg"
   inkscape:export-filename="icon.png"
   inkscape:export-xdpi="96"
   inkscape:export-ydpi="96"
   xmlns:inkscape="http://www.inkscape.org/namespaces/inkscape"
   xmlns:sodipodi="http://sodipodi.sourceforge.net/DTD/sodipodi-0.dtd"
   xmlns="http://www.w3.org/2000/svg"
   xmlns:svg="http://www.w3.org/2000/svg"><sodipodi:namedview
     id="namedview7"
     pagecolor="#ffffff"
     bordercolor="#000000"
     borderopacity="0.25"
     inkscape:showpageshadow="2"
     inkscape:pageopacity="0.0"
     inkscape:pagecheckerboard="false"
     inkscape:deskcolor="#d1d1d1"
     inkscape:document-units="px"
     showgrid="false"
     showguides="true"
     inkscape:zoom="1.0708779"
     inkscape:cx="208.24036"
     inkscape:cy="399.67208"
     inkscape:window-width="1575"
     inkscape:window-height="910"
     inkscape:window-x="109"
     inkscape:window-y="147"
     inkscape:window-maximized="0"
     inkscape:current-layer="layer1" /><defs
     id="defs2"><inkscape:path-effect
       effect="powerstroke"
       id="path-effect1"
       is_visible="true"
       lpeversion="1.3"
       scale_width="1"
       interpolator_type="CubicBezierJohan"
       interpolator_beta="0.2"
       start_linecap_type="zerowidth"
       end_linecap_type="zerowidth"
       offset_points="2,4.9921381"
       linejoin_type="extrp_arc"
       miter_limit="4"
       not_jump="false"
       sort_points="true"
       message="&lt;b&gt;Ctrl + clic&lt;/b&gt; puis déplacement sur un nœud existant" /><inkscape:path-effect
       effect="fill_between_many"
       method="bsplinespiro"
       autoreverse="false"
       close="false"
       join="false"
       linkedpaths="#path1,0,1"
       id="path-effect2" /></defs><g
     inkscape:label="Calque 1"
     inkscape:groupmode="layer"
     id="layer1"><rect
       style="fill:none;stroke:none;stroke-width:3.70001;stroke-linecap:round;stroke-linejoin:bevel;stroke-dasharray:none;paint-order:markers stroke fill"
       id="rect6008"
       width="101.6"
       height="101.6"
       x="16.933332"
       y="16.933332"
       ry="0" /><rect
       style="fill:#ececec;stroke:#000000;stroke-width:4.27192;stroke-linecap:square;stroke-linejoin:round;stroke-dasharray:none"
       id="rect1126"
       width="90.615776"
       height="78.436302"
       x="22.425444"
       y="28.515181"
       ry="10.107343" /><path
       d="m 60.331422,54.072671 c 0,-2.386314 -0.448212,-4.785524 -1.308292,-6.991255 -0.86008,-2.218627 -2.132029,-4.243773 -3.718936,-5.933539 -1.599026,-1.689776 -3.500889,-3.044169 -5.572352,-3.959998 -2.083573,-0.91583 -4.324634,-1.393094 -6.577797,-1.393094 -2.241054,0 -4.494226,0.477264 -6.565688,1.393094 -2.083574,0.915829 -3.985438,2.270222 -5.572351,3.959998 -1.586908,1.689766 -2.858856,3.714912 -3.718936,5.933539 -0.860082,2.205731 -1.308293,4.604941 -1.308293,6.991255 0,2.399218 0.448211,4.78553 1.308293,7.004157 0.86008,2.205731 2.132028,4.230869 3.718936,5.93354 1.586913,1.689767 3.488777,3.04417 5.572351,3.959998 2.071462,0.91583 4.324634,1.393085 6.565688,1.393085 2.253163,0 4.494224,-0.477264 6.577797,-1.393085 2.071463,-0.915828 3.973326,-2.270231 5.572352,-3.959998 1.586907,-1.702671 2.858856,-3.727809 3.718936,-5.93354 0.86008,-2.218627 1.308292,-4.604939 1.308292,-7.004157 z m -8.261616,-11.131836 -4.142924,3.9213 c -3.743168,-2.799084 -8.903651,-1.844565 -11.54446,2.141227 -1.804951,2.734592 -2.010886,6.307613 -0.520899,9.261485 l -4.130813,3.934197 c -3.403977,-5.44338 -3.016334,-12.628121 0.969105,-17.607133 4.918214,-6.152831 13.591698,-6.888069 19.369991,-1.651076 z m -1.889752,6.397908 c 0.448212,0.761033 0.799481,1.586574 1.01756,2.463703 l -3.634145,-0.02591 -7.498446,7.055755 c 2.459099,1.818754 5.850964,1.160906 7.559014,-1.457587 0.133208,-0.206367 0.254406,-0.425693 0.363438,-0.657805 l 3.585687,0.03888 c -0.339179,1.225397 -0.908536,2.360511 -1.683816,3.340833 -3.113254,3.959998 -8.661373,4.475952 -12.380316,1.148008 l -3.75528,3.495631 c 5.536016,5.533675 14.233725,5.236993 19.41844,-0.657803 4.518448,-5.120906 4.966659,-12.9377 1.090238,-18.61326 z m -4.724389,-0.141934 -7.110804,6.73328 c -0.484555,-1.405984 -0.39978,-2.966764 0.230149,-4.295364 1.271951,-2.69589 4.348851,-3.779406 6.880637,-2.437909 z"
       style="fill:#0088aa;fill-opacity:1;fill-rule:evenodd;stroke:none;stroke-width:0.125003;stroke-linecap:square;stroke-linejoin:miter;stroke-miterlimit:10;stroke-opacity:1"
       id="path2" /><rect
       style="fill:#008000;stroke-width:16.5374"
       id="rect3"
       width="20.76376"
       height="23.451185"
       x="-98.056427"
       y="29.366077"
       ry="6.5142174"
       transform="matrix(0.03328916,-0.99944576,0.9999872,0.00506052,0,0)" /><rect
       style="fill:#ff9955;stroke-width:8.27043"
       id="rect7"
       width="25.942499"
       height="4.6943579"
       x="78.815781"
       y="42.743366"
       ry="2.3471789"
       rx="0" /><rect
       style="fill:#008080;stroke-width:8.27043"
       id="rect8"
       width="25.942499"
       height="4.6943579"
       x="78.32164"
       y="51.143795"
       ry="2.3471789"
       rx="0" /><rect
       style="fill:#d4aa00;stroke-width:8.27043"
       id="rect9"
       width="25.942499"
       height="4.6943579"
       x="78.32164"
       y="60.038368"
       ry="2.3471789"
       rx="0" /><rect
       style="fill:#000080;stroke-width:8.27043"
       id="rect10"
       width="25.942499"
       height="4.6943579"
       x="78.32164"
       y="69.427086"
       ry="2.3471789"
       rx="0" /><rect
       style="fill:#ff5555;stroke-width:8.27043"
       id="rect11"
       width="25.942499"
       height="4.6943579"
       x="78.32164"
       y="78.815804"
       ry="2.3471789"
       rx="0" /><rect
       style="fill:#00ccff;stroke-width:8.27043"
       id="rect12"
       width="25.942499"
       height="4.6943579"
       x="78.32164"
       y="87.710373"
       ry="2.3471789"
       rx="0" /><rect
       style="fill:#80ffb3;stroke-width:8.27043"
       id="rect13"
       width="25.942499"
       height="4.6943579"
       x="78.56871"
       y="95.863731"
       ry="2.3471789"
       rx="0" /><rect
       style="fill:#0000ff;stroke-width:8.27043"
       id="rect14"
       width="25.942499"
       height="4.6943579"
       x="79.062851"
       y="33.848793"
       ry="2.3471789"
       rx="0" /><g
       id="path14"><path
         style="color:#000000;fill:#0000ff;-inkscape-stroke:none"
         d="M 51.496926,82.373253 64.631937,79.304034"
         id="path16" /><path
         style="color:#000000;fill:#0000ff;-inkscape-stroke:none"
         d="M 64.388672,78.265625 51.253906,81.333984 51.740234,83.412109 64.875,80.341797 Z"
         id="path17" /><g
         id="g15"><path
           d="m 60.365401,74.168105 17.351091,2.0785 -14.633376,9.552215 c 2.116144,-4.066874 0.984895,-8.908159 -2.717715,-11.630715 z"
           style="color:#000000;fill:#0000ff;fill-rule:evenodd;-inkscape-stroke:none"
           id="path15" /></g></g></g></svg>
